<svg id="Capa_1" enable-background="new 0 0 512 512" height="512" viewBox="0 0 512 512" width="512" xmlns="http://www.w3.org/2000/svg"><g><path d="m417.398 417.132h-350.671c-28.522 0-51.727-23.204-51.727-51.726v-218.811c0-28.522 23.205-51.727 51.727-51.727h22.143c4.142 0 7.5-3.358 7.5-7.5s-3.358-7.5-7.5-7.5h-22.143c-36.793 0-66.727 29.933-66.727 66.727v218.811c0 36.793 29.934 66.727 66.727 66.727h350.672c4.143 0 7.5-3.358 7.5-7.5-.001-4.143-3.358-7.501-7.501-7.501zm27.875-337.264h-320.057c-4.142 0-7.5 3.358-7.5 7.5s3.358 7.5 7.5 7.5h320.058c28.522 0 51.727 23.205 51.727 51.727v218.811c0 25.984-19.418 48.044-45.168 51.313-4.109.522-7.017 4.276-6.496 8.385.52 4.09 4.255 7.018 8.385 6.496 33.223-4.219 58.278-32.676 58.278-66.194v-218.811c0-36.794-29.934-66.727-66.727-66.727zm30.657 285.538v-218.811c0-16.904-13.752-30.656-30.656-30.656h-378.547c-16.903 0-30.655 13.752-30.655 30.656v218.811c0 16.904 13.752 30.656 30.655 30.656h378.547c16.904-.001 30.656-13.752 30.656-30.656zm-212.43-143.36c15.582 3.44 27.278 17.353 27.278 33.954s-11.696 30.515-27.278 33.955zm-212.429-29.655h48.408v127.218h-48.408zm197.429 97.564c-15.582-3.44-27.278-17.353-27.278-33.955s11.695-30.515 27.278-33.954zm0-83.167c-23.902 3.628-42.278 24.313-42.278 49.212s18.376 45.585 42.278 49.213v75.849h-181.773c-8.632 0-15.655-7.023-15.655-15.656v-30.796h55.908c4.142 0 7.5-3.358 7.5-7.5v-21.7c24.01-3.63 42.473-24.403 42.473-49.409s-18.463-45.779-42.473-49.409v-21.7c0-4.142-3.358-7.5-7.5-7.5h-55.909v-30.796c0-8.633 7.023-15.656 15.655-15.656h181.774zm-134.021 83.367v-68.309c15.691 3.443 27.473 17.445 27.473 34.154s-11.782 30.711-27.473 34.155zm346.451 29.454h-48.408v-127.218h48.408zm0-142.218h-55.908c-4.143 0-7.5 3.358-7.5 7.5v21.7c-24.01 3.629-42.474 24.402-42.474 49.409s18.463 45.78 42.474 49.409v21.7c0 4.142 3.357 7.5 7.5 7.5h55.908v30.796c0 8.633-7.023 15.656-15.656 15.656h-181.774v-75.849c23.902-3.628 42.278-24.314 42.278-49.213s-18.376-45.585-42.278-49.212v-75.849h181.773c8.633 0 15.656 7.023 15.656 15.656v30.797zm-63.408 44.459v68.305c-15.691-3.443-27.474-17.445-27.474-34.155 0-16.709 11.783-30.707 27.474-34.15z"/></g></svg>